<?xml version="1.0" encoding="UTF-8" standalone="no"?>
<!-- Created with Inkscape (http://www.inkscape.org/) -->


<svg
   xmlns:dc="http://purl.org/dc/elements/1.1/"
   xmlns:cc="http://creativecommons.org/ns#"
   xmlns:rdf="http://www.w3.org/1999/02/22-rdf-syntax-ns#"
   xmlns:svg="http://www.w3.org/2000/svg"
   xmlns="http://www.w3.org/2000/svg"
   xmlns:sodipodi="http://sodipodi.sourceforge.net/DTD/sodipodi-0.dtd"
   xmlns:inkscape="http://www.inkscape.org/namespaces/inkscape"
   viewBox="0 0 1200 800"
   version="1.1"
   id="svg8"
   inkscape:version="0.92.1 r15371"
   sodipodi:docname="3colorbackground.svg" preserveAspectRatio="none">
  
<defs
     id="defs2" />
  
<sodipodi:namedview
     id="base"
     pagecolor="#ffffff"
     bordercolor="#666666"
     borderopacity="1.0"
     inkscape:pageopacity="0.0"
     inkscape:pageshadow="2"
     inkscape:zoom="0.35"
     inkscape:cx="142.00413"
     inkscape:cy="694.44774"
     inkscape:document-units="px"
     inkscape:current-layer="layer1"
     showgrid="true"
     units="px"
     inkscape:pagecheckerboard="false"
     width="1122.5197px"
     inkscape:window-width="1366"
     inkscape:window-height="705"
     inkscape:window-x="-8"
     inkscape:window-y="-8"
     inkscape:window-maximized="1">
    <inkscape:grid
       type="xygrid"
       id="grid10" />
  </sodipodi:namedview>
  <metadata
     id="metadata5">
    <rdf:RDF>
      <cc:Work
         rdf:about="">
        <dc:format>image/svg+xml</dc:format>
        <dc:type
           rdf:resource="http://purl.org/dc/dcmitype/StillImage" />
        <dc:title></dc:title>
      </cc:Work>
    </rdf:RDF>
  </metadata>
  <g
     inkscape:label="Layer 1"
     inkscape:groupmode="layer"
     id="layer1"
     transform="translate(0,-85.33335)">
    <path
       style="opacity:1;fill:#78a8a9;fill-opacity:1;stroke:#000000;stroke-width:0;stroke-miterlimit:4;stroke-dasharray:none;stroke-opacity:1"
       d="M 1.2751487,749.72164 V 700.79928 L 19.856814,672.78362 c 14.290113,-21.54526 18.88442,-27.16067 19.892534,-24.3137 0.720976,2.03608 5.288201,23.93026 10.14939,48.65374 4.86119,24.72349 9.328846,44.95179 9.928123,44.95179 0.599279,0 14.173665,-30.68338 30.165303,-68.1853 15.991636,-37.50191 29.766626,-68.96914 30.611096,-69.92718 0.84446,-0.95803 14.49656,2.57775 30.33799,7.8573 l 28.80261,9.59919 16.83166,-8.34765 c 9.25742,-4.59121 16.83166,-7.87292 16.83166,-7.29268 0,0.58023 -7.31582,11.97479 -16.25737,25.32124 -8.94156,13.34646 -16.72849,25.49399 -17.3043,26.99452 -0.75959,1.97945 7.35992,5.53702 29.58379,12.96214 l 30.63072,10.23391 40.3899,-20.2142 c 29.12607,-14.57692 40.08495,-21.00885 39.29645,-23.06367 -0.60141,-1.56721 -8.4808,-13.87607 -17.50981,-27.35304 -9.02898,-13.47696 -15.90713,-25.01276 -15.2848,-25.63511 0.62236,-0.62235 30.74527,7.32932 66.9398,17.67039 l 65.80823,18.80193 10.01952,-9.86885 10.0195,-9.86885 40.06574,40.02818 40.06576,40.02818 20.5024,-10.28859 20.50242,-10.28859 10.26107,-20.44757 c 5.64358,-11.24616 9.51293,-21.12791 8.59856,-21.95944 -0.91439,-0.83153 -12.11759,-4.92034 -24.89602,-9.08624 -12.77843,-4.16591 -23.90568,-8.17876 -24.72722,-8.91746 -0.82155,-0.73869 18.97069,-5.36818 43.98275,-10.28776 l 45.47648,-8.94469 29.25414,29.20194 29.25414,29.20195 -29.7036,29.75319 c -16.33697,16.36425 -29.27913,30.17763 -28.76037,30.6964 0.51877,0.51876 19.03584,5.48397 41.14903,11.0338 l 40.20581,10.09058 19.86846,-9.97045 c 10.92765,-5.48376 19.86845,-10.86275 19.86845,-11.95333 0,-1.09058 -8.22306,-22.55772 -18.27346,-47.70475 -10.05041,-25.14703 -17.87586,-46.11949 -17.38989,-46.60545 0.48596,-0.48597 17.30985,7.33918 37.38641,17.38922 34.1815,17.11075 38.91691,18.87686 74.46352,27.77172 l 37.96066,9.49894 -33.33503,8.35663 c -18.33427,4.59615 -36.06245,9.08178 -39.39595,9.96808 -10.9546,2.91255 44.06614,19.93241 105.05586,32.49748 l 52.52793,10.82179 20.67562,-20.52508 c 11.37157,-11.28879 20.00838,-21.12131 19.1929,-21.85004 -0.81549,-0.72874 -17.61991,-5.27894 -37.34314,-10.11157 -19.72322,-4.83263 -35.86041,-9.36491 -35.86041,-10.07174 0,-0.70684 12.52567,-9.59293 27.83483,-19.74688 24.61793,-16.32809 30.97078,-19.51354 54.96919,-27.56266 14.92385,-5.00551 27.74575,-9.10093 28.49305,-9.10093 0.7473,0 5.6921,17.50089 10.9886,38.89087 5.2964,21.38998 9.8556,39.17489 10.1315,39.52202 0.2759,0.34713 8.7787,-3.52583 18.8951,-8.60657 10.1163,-5.08075 18.3934,-8.75384 18.3934,-8.16244 0,0.5914 -3.6366,8.30801 -8.0813,17.14802 -4.4446,8.84001 -8.0812,17.22239 -8.0812,18.62751 0,1.40512 22.2395,-19.67079 49.421,-46.83536 27.1816,-27.16457 49.8233,-48.9769 50.315,-48.47186 0.4917,0.50505 9.6175,22.71878 20.2795,49.36386 l 19.3856,48.44559 v 48.02398 48.02397 H 600.29561 1.2751487 Z"
       id="path4517"
       inkscape:connector-curvature="0"
       transform="translate(0,85.33335)" />
    <path
       style="opacity:1;fill:#aacfd0;fill-opacity:1;stroke:#000000;stroke-width:0;stroke-miterlimit:4;stroke-dasharray:none;stroke-opacity:1"
       d="M 52.925254,696.15078 C 42.13373,641.8641 41.493023,639.03543 39.998611,639.08088 c -0.7413,0.0226 -9.530054,12.44539 -19.530564,27.6063 L 2.2853013,694.25249 1.7638331,577.79802 1.2423646,461.34353 20.771891,412.3059 c 10.741239,-26.97071 19.805392,-49.38187 20.142561,-49.80256 0.337169,-0.42071 17.955835,3.56006 39.152595,8.84613 21.196763,5.28606 39.071413,9.07919 39.721453,8.42915 0.65003,-0.65003 -6.31497,-19.89849 -15.47779,-42.77434 -9.162823,-22.87585 -16.230383,-42.02175 -15.705696,-42.54644 0.52469,-0.52468 25.294416,27.47092 55.043836,62.21249 29.74943,34.74155 54.86222,63.46096 55.80621,63.8209 1.68461,0.64235 95.36521,-54.53767 100.32558,-59.09405 1.93988,-1.78189 -5.96168,-4.41095 -33.84011,-11.25958 -20.00399,-4.91419 -36.37091,-9.47103 -36.37091,-10.1263 0,-0.65526 29.48624,-9.59362 65.52498,-19.86301 l 65.52496,-18.67163 20.16952,10.12154 20.16949,10.12152 19.72222,-49.38514 19.72224,-49.38515 18.99523,28.45108 18.99523,28.45108 -20.28764,30.50687 c -11.15821,16.77877 -20.03607,30.75845 -19.72858,31.06592 0.68405,0.68406 181.2485,-59.44231 182.61556,-60.80936 0.53574,-0.53576 -16.86337,-9.87891 -38.6647,-20.76257 l -39.63877,-19.78846 37.60684,-18.8243 c 20.68377,-10.35336 37.87396,-18.54332 38.20042,-18.19992 0.32646,0.34341 4.85356,21.9891 10.06021,48.10154 5.20667,26.11245 10.15991,48.20422 11.00721,49.09283 0.84731,0.88862 10.08671,-28.3823 20.53201,-65.04647 10.4453,-36.66418 19.55025,-66.02905 20.23322,-65.25528 0.68296,0.77378 5.09824,17.04632 9.81171,36.1612 l 8.56997,34.75434 31.34328,10.44639 31.34325,10.4464 20.44509,-20.44508 20.44508,-20.44508 -29.27519,-29.57156 c -16.10135,-16.26436 -27.91148,-29.13637 -26.24473,-28.60447 1.66675,0.53191 23.07008,4.90836 47.56297,9.72545 l 44.53251,8.75835 19.9746,50.14378 c 10.98601,27.57908 20.51209,50.14378 21.16908,50.14378 0.65696,0 8.36315,-25.22856 17.12487,-56.06347 8.76172,-30.8349 17.68444,-61.87784 19.82827,-68.9843 l 3.89785,-12.92083 18.95658,18.87775 c 10.42611,10.38277 19.53771,18.29663 20.24799,17.58635 0.71026,-0.71027 -2.88435,-13.78317 -7.98805,-29.05089 -5.10369,-15.26772 -9.02999,-28.00893 -8.72513,-28.3138 0.54936,-0.54935 112.99233,17.71225 114.12433,18.53466 0.3239,0.23536 -3.5816,17.03563 -8.6791,37.33394 -5.0974,20.2983 -8.9959,38.31873 -8.6634,40.0454 0.3535,1.83537 21.0216,-21.36164 49.7579,-55.84613 27.0344,-32.44204 49.9917,-58.98553 51.0164,-58.98553 1.0246,0 14.563,8.40952 30.0851,18.68782 l 28.2222,18.68783 0.052,275.60329 c 0.028,151.58179 -0.32,275.22446 -0.7743,274.76149 -0.6635,-0.67615 -28.1735,-68.66174 -35.8557,-88.61028 -1.8102,-4.70048 -4.1132,-2.72525 -48.2695,41.39977 -25.5028,25.48468 -46.3687,45.63863 -46.3687,44.78657 0,-0.85204 3.1935,-7.89044 7.0965,-15.64088 3.9031,-7.75043 6.1577,-14.09171 5.0104,-14.09171 -1.1474,0 -10.3449,4.14785 -20.4391,9.21744 -10.0942,5.06959 -18.5788,8.93343 -18.8547,8.5863 -0.2759,-0.34713 -4.8351,-18.13204 -10.1315,-39.52202 -5.2965,-21.38998 -10.0591,-38.89087 -10.5837,-38.89087 -0.5246,0 -14.7352,4.71626 -31.57913,10.48055 -28.23873,9.66383 -32.97251,12.04462 -60.74433,30.55057 -20.80335,13.86247 -29.23907,20.53501 -27.27412,21.57347 1.56466,0.82689 18.98204,5.46286 38.70527,10.30214 19.72323,4.8393 35.86041,9.29853 35.86041,9.90943 0,0.6109 -8.11882,9.19195 -18.04183,19.06898 l -18.04183,17.95823 -48.12316,-9.59397 c -31.42926,-6.26581 -57.96005,-12.92048 -76.47974,-19.18322 l -28.3566,-9.58928 31.38706,-7.7235 c 43.31427,-10.6585 45.23637,-11.23771 43.246,-13.0316 -0.96659,-0.87119 -19.48562,-5.93808 -41.15339,-11.25974 -38.04925,-9.34502 -40.76735,-10.35986 -79.51497,-29.68764 -22.06544,-11.00654 -40.46265,-19.66825 -40.88263,-19.24827 -0.41998,0.42 8.18515,23.07469 19.12249,50.34378 l 19.88611,49.58014 -19.40958,9.52827 -19.40957,9.52826 -38.06399,-9.54273 -38.06396,-9.54273 29.47767,-29.5269 29.47766,-29.5269 -30.84852,-30.80036 -30.84852,-30.80036 -50.35439,10.11668 c -27.69491,5.56418 -50.81496,10.1167 -51.37787,10.1167 -4.73162,0 7.16024,4.95722 29.07904,12.12183 14.44518,4.72172 27.01269,9.26577 27.92778,10.09791 0.91508,0.83212 -2.51033,9.82416 -7.61204,19.98229 l -9.27587,18.46933 -19.17716,9.52624 -19.17718,9.52624 -40.38337,-40.34549 -40.38338,-40.34551 -10.26866,10.26866 -10.26867,10.26867 -69.78263,-19.97664 c -38.38044,-10.98716 -70.0978,-19.66146 -70.48301,-19.27625 -0.38523,0.38521 7.90802,13.59409 18.42943,29.35305 10.5214,15.75897 19.12982,29.36778 19.12982,30.24181 0,0.874 -17.26512,10.18345 -38.36692,20.68762 l -38.36691,19.09849 -26.78793,-8.76762 c -14.73335,-4.82221 -27.45352,-9.37375 -28.26703,-10.11454 -0.81352,-0.74078 7.20775,-14.3581 17.82504,-30.26069 10.61729,-15.90257 18.87828,-29.33968 18.35772,-29.86021 -0.52053,-0.52056 -9.86224,3.52941 -20.75932,8.99989 l -19.81289,9.94633 -29.31488,-9.82071 c -16.12318,-5.40138 -29.93011,-9.8207 -30.68207,-9.8207 -0.75196,0 -14.30549,30.22881 -30.118962,67.17514 -15.813472,36.94633 -28.961902,67.4192 -29.218733,67.7175 -0.256834,0.2983 -3.858904,-16.52074 -8.004601,-37.37565 z"
       id="path4519"
       inkscape:connector-curvature="0"
       transform="translate(0,85.33335)" />
    <path
       style="opacity:1;fill:#d8e9e2;fill-opacity:1;stroke:#000000;stroke-width:0;stroke-miterlimit:4;stroke-dasharray:none;stroke-opacity:1"
       d="M 1.3723591,226.39258 1.2751487,0.62348295 H 600.29561 1199.3161 V 68.303703 c 0,37.224117 -0.4709,67.680217 -1.0464,67.680217 -0.5755,0 -13.3862,-8.18223 -28.4684,-18.18274 -15.0821,-10.00051 -28.4756,-18.130305 -29.7633,-18.066208 -1.2877,0.0641 -23.2514,25.397038 -48.8083,56.295428 -25.5568,30.89839 -46.7324,55.96063 -47.0567,55.69387 -0.3244,-0.26674 3.4866,-16.71264 8.4689,-36.54643 4.9823,-19.83378 8.8842,-36.22484 8.671,-36.42457 -1.3546,-1.26871 -121.70732,-20.04968 -122.12695,-19.05785 -0.2865,0.67717 3.12276,12.07691 7.57614,25.33275 4.45338,13.25584 8.09706,25.0343 8.09706,26.17434 0,1.14005 -8.03485,-5.9248 -17.85521,-15.69967 l -17.85522,-17.77249 -18.82655,66.30193 c -10.35463,36.46607 -19.42556,66.99779 -20.15764,67.84825 -0.73208,0.85049 -9.79985,-19.72304 -20.15058,-45.71893 L 841.1944,178.8963 790.44553,168.74058 c -27.91187,-5.58564 -51.1599,-9.75388 -51.66227,-9.26275 -0.50237,0.49114 12.45631,14.28502 28.79708,30.65307 l 29.71047,29.76009 -19.1914,19.1116 -19.19141,19.11163 -28.86943,-9.54653 -28.86943,-9.54653 -9.9596,-40.40694 c -5.47778,-22.22381 -10.49652,-40.40694 -11.15275,-40.40694 -0.65624,0 -9.72359,29.98176 -20.14968,66.62615 -10.4261,36.64437 -19.24449,66.33817 -19.59645,65.98621 -0.35196,-0.35196 -4.72168,-20.9346 -9.71048,-45.73924 -4.9888,-24.80464 -9.43171,-45.46048 -9.87313,-45.9019 -1.36245,-1.36245 -82.28246,39.8542 -81.29792,41.40914 0.50922,0.80427 17.36719,9.62435 37.46215,19.6002 20.09497,9.97584 36.53631,18.61951 36.53631,19.20819 0,1.38433 -166.17434,56.76221 -167.21265,55.72389 -0.432,-0.432 7.39787,-13.01244 17.39974,-27.95654 l 18.18521,-27.17106 -20.04113,-30.0802 c -11.0226,-16.54412 -20.72655,-30.29807 -21.56433,-30.56437 -0.83778,-0.26627 -9.18316,18.82442 -18.54529,42.42374 -9.36215,23.59935 -18.23948,45.86509 -19.72739,49.4794 l -2.70533,6.5715 -18.11296,-9.09689 c -9.96213,-5.00326 -19.69256,-9.09686 -21.62319,-9.09686 -4.73624,0 -142.00852,39.1113 -142.02191,40.46457 -0.006,0.58772 16.12662,5.02801 35.84985,9.86731 19.72323,4.83927 37.05146,9.42537 38.50722,10.1913 1.64709,0.86663 -15.14039,12.05654 -44.44672,29.62649 l -47.09351,28.23386 -59.37023,-69.29329 c -32.65362,-38.11132 -60.14176,-69.29329 -61.084745,-69.29329 -0.942988,0 -0.0077,4.3184 2.078285,9.59644 2.086044,5.27805 10.694706,26.80917 19.13036,47.84695 8.43565,21.03778 14.92849,38.65957 14.42852,39.15953 -0.49997,0.49997 -17.531413,-3.25307 -37.847662,-8.34008 -20.316247,-5.08701 -37.548538,-8.61717 -38.29398,-7.8448 -0.745442,0.77238 -9.565785,21.8599 -19.600764,46.86118 L 1.4695696,452.16167 Z"
       id="path4521"
       inkscape:connector-curvature="0"
       transform="translate(0,85.33335)" />
  </g>
</svg>
